<?xml version="1.0" encoding="utf-8"?>
<!DOCTYPE svg PUBLIC "-//W3C//DTD SVG 1.1//EN" "http://www.w3.org/Graphics/SVG/1.1/DTD/svg11.dtd">
<svg version="1.1" xmlns="http://www.w3.org/2000/svg" xmlns:xlink="http://www.w3.org/1999/xlink" x="0px" y="0px" viewBox="0 0 1000 1000" enable-background="new 0 0 500 500" xml:space="preserve">
<g><g transform="translate(0.000000,512.000000) scale(0.100000,-0.100000)"><path d="M5987.4,4999c-417.9-155.3-807-906.7-1038.9-2005c-26.8-130.3-51.8-241.5-55.6-245.4c-3.8-3.8-65.2,28.8-136.1,72.8c-201.3,122.7-538.6,297.1-728.4,375.7c-707.3,289.5-1153.9,247.3-1286.2-120.8c-38.3-107.3-32.6-391,9.6-571.2c67.1-276,239.6-674.7,446.6-1031.3c78.6-136.1,80.5-166.8,5.7-166.8c-24.9,0-170.6-21.1-323.9-47.9C1609.3,1044.5,733.3,659.2,489.9,210.7c-55.6-105.4-65.2-138-63.3-254.9c0-164.9,47.9-272.2,185.9-423.6C967.1-857,1958.2-1225,3064.2-1378.4c90.1-11.5,176.3-28.8,187.8-36.4c17.3-9.6,1.9-51.7-53.7-145.7c-212.8-368-393-789.7-454.3-1067.7c-44.1-203.2-34.5-488.8,23-598.1c23-42.2,61.3-95.8,86.3-118.8c287.5-268.4,998.7-109.3,1882.3,423.6c115,69,212.8,124.6,214.7,120.8c1.9-1.9,23-76.7,46-166.8c243.4-968,561.6-1575.7,927.8-1769.2c118.8-61.3,314.3-57.5,446.6,11.5c195.5,101.6,391,348.9,561.6,711.2c111.2,235.8,262.6,678.6,337.4,989.1c28.8,120.8,55.6,222.4,57.5,226.2c1.9,3.8,93.9-47.9,203.2-113.1c651.7-394.9,1290-615.3,1608.2-557.8c143.8,26.8,193.6,49.9,277.9,122.7c189.8,166.8,207,477.3,53.7,950.8c-113.1,345-381.5,864.5-680.5,1309.2l-109.3,164.9l145.7,70.9c341.2,168.7,580.8,366.1,686.2,569.3c44.1,84.4,53.7,128.4,55.6,237.7c0,116.9-9.6,149.5-65.2,254.9c-105.4,193.6-339.3,385.3-674.7,550.1l-145.7,72.8l157.2,241.5c701.6,1079.2,914.3,1886.2,577,2183.3c-182.1,159.1-462,172.5-881.8,40.3c-279.9-86.3-820.4-347-1094.5-527.1c-57.5-36.4-46-63.3-124.6,293.3c-220.4,1002.5-573.2,1707.9-946.9,1897.7C6251.9,5022,6089,5037.3,5987.4,4999z M6290.3,4816.9c235.8-151.4,462-527.1,657.5-1096.4c99.7-289.4,241.5-822.3,264.5-989.1l11.5-93.9l-264.5-189.8c-147.6-103.5-389.1-287.5-540.6-406.4c-149.5-120.8-281.8-212.8-291.4-207c-9.6,5.7-132.3,103.5-272.2,214.7c-139.9,111.2-371.9,285.6-513.7,385.3c-141.8,99.7-266.4,189.8-276,197.4c-36.4,30.7,166.7,822.3,304.8,1198c191.7,515.6,427.5,883.7,632.6,991C6083.2,4862.9,6219.3,4861,6290.3,4816.9z M3585.6,3164.6c289.4-74.8,676.7-247.3,1081.1-481.1c107.3-63.3,195.5-116.9,195.5-116.9c0-1.9-21.1-145.7-46-320.1c-24.9-174.4-57.5-429.4-70.9-567.4l-24.9-251.1l-314.4-13.4c-306.7-13.4-636.4-36.4-839.6-61.3l-97.8-11.5l-69,113.1c-105.4,174.4-291.4,554-368,749.5c-184,475.4-193.6,868.3-23,960.3C3135.1,3231.7,3321,3231.7,3585.6,3164.6z M8671,2754.4c203.2-59.4,276-174.4,289.4-444.7c13.4-295.2-76.7-611.5-304.8-1060c-185.9-369.9-147.6-341.2-373.8-268.4c-103.5,32.6-300.9,90.1-437.1,124.6c-134.2,36.4-251.1,69-254.9,74.8c-5.7,5.8-13.4,46-17.2,92c-47.9,534.8-103.5,1021.7-134.2,1161.6c-7.7,38.3,9.6,49.8,139.9,111.2C8034.6,2752.5,8423.7,2827.2,8671,2754.4z M5193.8,2348c366.1-254.9,839.6-626.8,818.5-642.1c-5.7-3.8-80.5-70.9-166.8-147.6l-157.2-138l-398.7,1.9c-218.5,0-398.7,3.8-402.5,7.7c-5.7,5.8,61.3,603.8,90.1,787.8c26.8,184,40.3,239.6,51.8,239.6C5034.7,2457.3,5109.5,2407.4,5193.8,2348z M7285.1,2328.8c30.7-145.7,126.5-962.3,126.5-1084.9c0-32.6-7.7-36.4-61.3-24.9c-34.5,7.7-195.5,34.5-358.5,59.4l-293.3,46l-145.7,130.4c-78.6,70.9-174.5,157.2-212.8,189.8l-69,61.3l47.9,40.3c172.5,143.8,897.1,632.6,943.1,634.5C7267.8,2380.6,7279.3,2357.6,7285.1,2328.8z M6307.5,1473.9l130.4-118.9l-207,15.3c-115,7.7-233.9,21.1-262.6,28.8l-55.6,13.4l113.1,90.1c61.3,51.8,120.8,92,130.3,92C6167.6,1594.7,6234.6,1539.1,6307.5,1473.9z M5423.8,1253.5l70.9-13.4L5167,914.2l-327.8-325.9l13.4,325.9c5.7,178.3,17.3,331.6,21.1,339.3C4885.2,1272.6,5324.2,1272.6,5423.8,1253.5z M4701.2,1130.8c-5.8-67.1-15.3-258.8-23-427.5l-13.4-306.7l-136.1-155.3c-74.8-88.2-141.8-159.1-147.6-159.1c-28.8-3.8-701.6,891.3-776.3,1035.1c-24.9,49.8-23,51.7,36.4,61.3c53.7,9.6,352.7,40.3,578.9,57.5c42.2,3.8,170.6,7.7,285.6,9.6l207,3.8L4701.2,1130.8z M6319,1197.9l314.4-28.8l159.1-147.6c88.2-80.5,272.2-264.5,408.3-410.2l249.2-264.5V17.1c-1.9-182.1-9.6-366.1-17.3-410.2c-13.4-69-53.7-120.8-270.3-348.9c-139.9-149.5-316.3-325.9-391-393l-138-122.7l-304.8-30.7c-168.7-15.3-373.8-34.5-454.3-40.2l-147.6-13.4l-440.9,439l-439,437.1l-9.6,364.2c-5.8,201.3-5.8,391,0,421.7c7.7,44.1,118.8,164.8,448.5,494.5l439,437.1l139.9-11.5C5939.5,1234.3,6144.6,1215.1,6319,1197.9z M3512.7,967.9c149.5-220.4,417.9-582.7,605.7-814.7C4200.9,51.6,4268-38.5,4268-44.2c0-7.7-80.5-113.1-180.2-237.7c-182.1-226.2-423.6-552.1-594.2-803.2c-70.9-103.5-105.4-138-139.9-138c-61.3,0-479.2,90.1-678.6,143.8c-879.8,247.3-1435.7,647.9-1435.7,1037c0,331.6,437,695.8,1127.1,935.4c235.8,82.4,354.6,115,674.7,185.9C3403.5,1157.6,3378.6,1163.4,3512.7,967.9z M7195,1075.2c113.1-21.1,212.8-46,218.5-51.7c17.3-19.2,36.4-429.4,21.1-421.7c-44.1,19.2-504.1,513.7-477.3,513.7C6974.6,1115.5,7081.9,1098.2,7195,1075.2z M7795,942.9c155.3-42.2,559.7-172.5,573.2-185.9c17.2-13.4-450.5-657.5-475.4-657.5c-9.6,0-76.7,70.9-151.4,157.2l-138,155.3v241.5c0,132.3-5.8,260.7-11.5,285.6C7576.5,992.8,7605.2,994.7,7795,942.9z M8755.3,590.2c222.4-111.2,371.9-210.9,486.9-327.8c157.2-155.3,197.4-291.4,134.2-442.8c-32.6-78.6-191.7-241.5-324-333.5c-93.9-63.3-444.7-249.2-473.4-249.2c-7.7,0-59.4,61.3-116.9,138c-55.6,76.7-182.1,237.7-277.9,358.4C8084.4-145.8,8013.5-38.5,8019.3-27c7.7,11.5,84.3,107.4,168.7,212.8c86.3,105.4,207,258.8,266.5,341.2c61.3,80.5,116.9,147.6,124.6,147.6C8584.7,674.6,8665.2,636.2,8755.3,590.2z M4670.5-48.1v-203.2l-40.2,36.4c-23,19.2-65.2,67.1-95.8,105.4l-53.7,69l86.3,97.8c47.9,55.6,90.1,99.7,95.8,99.7C4666.7,157,4670.5,65,4670.5-48.1z M7773.9-44.2c1.9-9.6-36.4-61.3-84.4-115l-84.3-95.8l-1.9,78.6c0,44.1,5.7,132.3,13.4,199.4l11.5,120.8l72.8-84.4C7741.3,13.3,7773.9-32.8,7773.9-44.2z M4542.1-343.3l147.6-172.5v-118.8c0-65.2,9.6-251.1,21.1-412.1c11.5-161,19.2-295.2,15.3-297.1c-24.9-17.3-853,40.2-1077.3,74.7l-70.9,11.5l42.2,69c128.4,216.6,732.2,1021.7,761,1017.8C4386.8-170.8,4459.7-249.4,4542.1-343.3z M8057.6-393.1c214.7-291.4,320.1-444.7,310.5-454.3c-13.4-11.5-479.2-159.1-611.5-193.6c-69-17.3-139.9-34.5-159.1-40.3c-30.7-9.6-32.6,0-24.9,82.4c5.7,49.8,15.3,184,23,297.1l11.5,205.1l136.1,153.3C7816.1-257,7883.2-188,7892.7-188C7900.4-188,7975.2-280,8057.6-393.1z M5452.6-1342c-24.9-5.7-153.3-11.5-287.5-13.4l-241.5-1.9l-11.5,72.8c-13.4,88.2-49.8,475.4-49.8,540.6c0,40.2,51.8-3.8,316.3-268.4C5464.1-1295.9,5490.9-1330.5,5452.6-1342z M7405.9-910.7c-9.6-113.1-19.2-209-21.1-212.8c-9.6-7.7-391-80.5-427.5-80.5c-19.2,0,63.3,97.7,205.1,247.3c132.3,134.2,243.4,247.3,249.2,249.2C7417.4-707.5,7415.4-797.6,7405.9-910.7z M8623.1-1271c157.2-302.9,235.8-498.4,295.2-736.1c49.9-191.7,61.3-437,26.8-559.7c-88.2-320.1-452.4-391-1025.5-201.3c-105.4,36.4-268.4,99.7-362.3,143.8l-170.6,78.6l11.5,80.5c5.7,46,28.8,199.4,51.8,345c23,143.8,55.6,393,72.8,555.9l32.6,293.3l297.1,78.6c162.9,42.2,362.3,99.7,440.9,126.5c78.6,28.8,157.2,49.8,172.5,47.9C8481.2-1019.9,8550.2-1135,8623.1-1271z M7361.8-1380.3c-44.1-312.4-72.9-483-126.5-738c-32.6-161-65.2-293.3-72.8-293.3c-47.9,0-877.9,578.9-881.7,615.3c0,5.8,93.9,93.9,210.8,197.4l210.9,185.9l310.5,47.9c172.5,26.8,316.3,53.7,320.1,57.5C7359.9-1280.6,7371.4-1311.3,7361.8-1380.3z M3869.3-1472.3c113.1-9.6,356.5-23,542.5-30.7c320.1-13.4,337.4-15.3,345-53.7c3.8-23,17.2-126.5,28.8-231.9c21.1-189.8,101.6-686.2,124.6-782.1c11.5-46-1.9-57.5-218.5-185.9c-310.5-182.1-701.6-369.9-943.1-448.5c-454.3-147.6-732.2-132.2-822.3,47.9c-78.6,153.3-36.4,494.6,105.4,860.7c72.8,189.7,262.6,578.9,368,753.3l67.1,111.2l99.7-11.5C3620.1-1449.3,3756.2-1462.7,3869.3-1472.3z M6414.8-1460.8c0-1.9-59.4-57.5-130.3-122.7l-132.3-116.9l-116.9,99.7c-65.2,53.7-115,101.6-109.3,105.4C5943.3-1478,6414.8-1443.6,6414.8-1460.8z M5849.4-1648.7c88.2-76.7,161-145.7,161-153.3c5.7-42.2-854.9-680.5-879.9-655.6c-24.9,28.8-191.7,831.9-191.7,931.6c0,9.6,168.7,15.3,375.7,15.3h375.7L5849.4-1648.7z M6420.6-2129.8c149.5-118.8,366.1-283.7,479.2-366.1c176.4-128.4,205.1-155.3,193.6-191.7c-86.3-287.5-285.6-715-417.9-900.9c-396.8-555.9-795.5-490.7-1186.5,189.8c-93.9,162.9-279.9,609.6-293.3,707.3c-9.6,55.6,0,67.1,187.8,199.3c109.3,74.8,324,237.7,475.4,358.5c153.3,120.8,279.9,220.4,281.8,220.4C6144.6-1913.2,6269.2-2010.9,6420.6-2129.8z"/><path d="M6014.2,596c-191.7-36.4-362.3-168.7-458.1-352.7c-46-84.3-51.8-116.9-51.8-287.5c0-172.5,5.8-201.3,53.7-293.3c260.7-492.6,943.1-475.4,1180.8,32.6c70.9,151.4,70.9,366.1-1.9,521.4C6641,425.4,6474.3,555.7,6253.8,596C6127.3,619,6131.2,619,6014.2,596z"/></g></g>
</svg>